<?xml version="1.0" standalone="no"?>
<!DOCTYPE svg PUBLIC "-//W3C//DTD SVG 20010904//EN"
 "http://www.w3.org/TR/2001/REC-SVG-20010904/DTD/svg10.dtd">
<svg version="1.0" xmlns="http://www.w3.org/2000/svg"
 width="403.000000pt" height="408.000000pt" viewBox="0 0 403.000000 408.000000"
 preserveAspectRatio="xMidYMid meet">

<g transform="translate(0.000000,408.000000) scale(0.100000,-0.100000)"
fill="#000000" stroke="none">
<path d="M1725 3600 c-168 -38 -351 -98 -386 -127 -8 -7 -20 -13 -26 -13 -16
0 -163 -92 -233 -145 -102 -80 -282 -265 -354 -365 -45 -64 -151 -254 -178
-320 -35 -87 -76 -225 -83 -280 -3 -25 -13 -79 -21 -121 -22 -114 -23 -409 -2
-474 9 -27 19 -72 22 -100 6 -47 50 -186 73 -230 6 -11 13 -31 16 -45 7 -28
59 -143 80 -174 163 -252 243 -347 402 -475 73 -59 88 -70 170 -124 60 -39
239 -127 260 -127 8 0 32 -7 54 -16 34 -13 102 -30 266 -65 69 -15 377 -16
445 -1 30 6 66 14 80 17 140 28 255 65 360 116 105 51 95 45 170 97 34 23 66
42 71 42 5 0 9 4 9 9 0 4 26 28 57 53 114 89 263 252 341 373 18 27 53 92 78
145 25 52 51 106 58 120 16 31 56 166 85 285 33 131 45 320 31 493 -6 79 -15
154 -20 168 -5 13 -14 54 -21 91 -32 192 -181 487 -335 662 -225 256 -456 410
-729 485 -299 82 -520 96 -740 46z m525 -150 c302 -50 583 -213 815 -471 46
-51 95 -116 95 -125 0 -4 9 -17 20 -29 11 -12 47 -74 80 -139 63 -125 120
-294 140 -411 7 -38 16 -80 21 -93 14 -37 10 -240 -6 -327 -9 -44 -20 -116
-26 -160 -6 -44 -16 -93 -23 -110 -8 -16 -19 -50 -26 -75 -11 -41 -92 -216
-122 -265 -58 -94 -107 -163 -148 -210 -79 -89 -119 -130 -168 -167 -31 -24
-59 -45 -62 -48 -7 -7 -88 -62 -110 -75 -139 -79 -158 -88 -260 -122 -25 -8
-59 -21 -77 -28 -53 -23 -242 -56 -353 -62 -88 -4 -126 -1 -234 21 -114 23
-242 59 -301 86 -11 5 -54 23 -95 41 -224 95 -482 331 -616 564 -19 33 -39 67
-44 75 -34 56 -83 193 -130 362 -45 162 -39 541 10 688 11 33 20 65 20 72 0
33 93 238 152 334 80 132 100 159 207 265 137 136 294 246 451 314 19 8 49 22
65 29 56 27 180 59 275 72 105 15 343 11 450 -6z"/>
<path d="M1565 2671 c-90 -12 -189 -69 -294 -172 -45 -43 -105 -112 -127 -144
-11 -16 -39 -57 -61 -90 -85 -125 -177 -325 -204 -445 -13 -57 -2 -175 18
-207 25 -37 51 -26 84 36 15 30 33 66 39 80 5 14 14 33 19 41 5 8 16 29 24 45
25 53 79 149 102 180 12 17 24 37 27 46 13 33 173 222 221 261 155 122 258
118 389 -13 45 -45 69 -82 113 -176 86 -182 91 -194 121 -263 31 -75 105 -225
142 -290 71 -123 191 -234 286 -265 199 -65 350 44 531 384 75 141 108 222
131 322 l17 76 -22 37 c-13 20 -27 36 -32 36 -36 0 -54 -27 -129 -195 -35 -79
-93 -190 -106 -206 -8 -8 -14 -19 -14 -23 0 -34 -168 -218 -215 -236 -86 -33
-170 20 -268 167 -26 40 -55 89 -63 110 -9 21 -22 52 -29 68 -12 27 -36 89
-74 195 -13 36 -44 116 -79 207 -11 28 -27 62 -36 74 -9 13 -16 29 -16 36 0
13 -15 39 -79 138 -24 36 -64 79 -105 113 -9 7 -45 26 -79 42 -67 30 -148 41
-232 31z"/>
</g>
</svg>
